<?xml version="1.0" standalone="no"?>
<!DOCTYPE svg PUBLIC "-//W3C//DTD SVG 20010904//EN"
 "http://www.w3.org/TR/2001/REC-SVG-20010904/DTD/svg10.dtd">
<svg version="1.0" xmlns="http://www.w3.org/2000/svg"
 width="336.000000pt" height="364.000000pt" viewBox="0 0 336.000000 364.000000"
 preserveAspectRatio="xMidYMid meet">

<g transform="translate(0.000000,364.000000) scale(0.100000,-0.100000)"
fill="#000000" stroke="none">
<path d="M1800 2354 c-23 -27 -50 -35 -154 -49 -160 -21 -226 -58 -226 -127 0
-43 22 -78 83 -130 52 -45 54 -49 60 -107 8 -92 5 -98 -63 -105 -212 -24 -360
-248 -276 -415 37 -73 71 -107 138 -140 53 -27 72 -31 143 -31 47 0 100 6 124
15 61 21 122 76 162 144 35 61 51 71 118 71 50 1 108 36 130 79 12 22 21 51
21 65 0 50 -39 131 -85 176 l-44 44 44 47 c58 62 78 111 71 171 -11 97 -44
126 -153 136 l-63 5 0 83 c0 84 -6 98 -30 68z m-63 -111 c17 -8 39 -23 48 -33
16 -17 14 -19 -41 -30 -32 -7 -100 -10 -151 -8 -104 4 -110 0 -67 -52 15 -17
23 -34 19 -38 -10 -11 -85 74 -85 97 0 39 48 68 140 84 36 7 100 -3 137 -20z
m196 -130 c28 -32 31 -69 7 -117 -27 -57 -87 -111 -141 -127 -40 -13 -43 -12
-57 11 -9 14 -46 55 -83 91 -54 53 -68 74 -74 107 l-7 41 104 4 c57 1 133 4
169 5 52 2 69 -2 82 -15z m-258 -223 c25 -26 27 -33 15 -40 -17 -11 -42 -13
-64 -4 -11 4 -16 19 -16 50 0 40 2 44 18 35 9 -5 30 -23 47 -41z m234 -110
c40 -28 91 -116 91 -156 0 -45 -67 -94 -127 -94 l-28 0 0 83 c-1 68 -5 92 -28
141 l-27 59 44 -5 c24 -3 58 -15 75 -28z m-153 -17 c18 -42 32 -227 18 -235
-5 -2 -46 -3 -92 0 l-83 4 6 122 c4 66 8 127 10 134 3 8 25 12 65 12 60 0 60
0 76 -37z m-196 -93 c0 -85 -4 -131 -15 -157 -8 -20 -13 -38 -10 -41 3 -3 52
-4 110 -3 74 2 105 -1 105 -9 0 -33 -63 -100 -122 -129 -150 -75 -316 -1 -359
160 -12 43 -10 50 18 110 49 106 91 144 188 175 87 27 85 30 85 -106z"/>
</g>
</svg>
