<?xml version="1.0" standalone="no"?>
<!DOCTYPE svg PUBLIC "-//W3C//DTD SVG 20010904//EN"
 "http://www.w3.org/TR/2001/REC-SVG-20010904/DTD/svg10.dtd">
<svg version="1.0" xmlns="http://www.w3.org/2000/svg"
 width="2000.000000pt" height="1500.000000pt" viewBox="0 0 2000.000000 1500.000000"
 preserveAspectRatio="xMidYMid meet">

<g transform="translate(0.000000,1500.000000) scale(0.100000,-0.100000)"
fill="#000000" stroke="none">
<path d="M9673 12490 c-1463 -97 -2804 -826 -3687 -2005 -471 -629 -788 -1370
-920 -2150 -53 -317 -61 -422 -61 -835 0 -413 8 -518 61 -835 171 -1016 651
-1948 1379 -2681 258 -259 498 -457 790 -651 1400 -929 3167 -1090 4725 -431
137 58 427 204 560 283 1310 774 2196 2084 2419 3575 40 273 46 366 46 750 -1
401 -9 512 -61 825 -211 1255 -901 2388 -1924 3159 -733 553 -1571 880 -2510
981 -175 18 -634 27 -817 15z m-579 -3211 c21 -17 26 -29 26 -65 0 -25 -5 -55
-12 -67 -14 -26 -17 -54 -17 -200 -1 -76 4 -119 15 -147 9 -22 13 -51 10 -64
-3 -13 -1 -46 5 -72 7 -27 12 -92 13 -144 0 -52 7 -129 15 -170 17 -89 11
-122 -29 -161 -46 -47 -60 -39 -107 59 -26 55 -58 105 -88 134 -44 45 -46 50
-40 86 5 31 2 41 -16 57 -12 11 -25 30 -30 43 -7 18 -15 23 -37 20 -24 -3 -27
0 -28 26 -1 17 -10 37 -23 47 -11 9 -21 20 -21 23 0 4 -16 20 -35 37 -20 17
-35 41 -35 53 0 25 -35 86 -50 86 -6 0 -18 16 -27 35 -9 19 -20 35 -24 35 -4
0 -38 21 -76 47 -37 26 -111 66 -163 89 -52 23 -108 49 -125 58 -16 9 -39 16
-50 16 -11 0 -65 11 -120 24 -94 23 -104 23 -165 10 -36 -8 -92 -13 -125 -13
-67 2 -160 -34 -150 -58 3 -7 8 -20 11 -28 5 -11 -2 -15 -27 -17 -19 0 -46 -2
-61 -2 -15 -1 -37 -12 -48 -24 -11 -12 -25 -22 -30 -22 -5 0 -23 -20 -40 -45
-17 -25 -44 -52 -59 -60 -36 -18 -50 -64 -26 -81 15 -11 15 -18 5 -48 -6 -20
-17 -39 -24 -43 -10 -6 -9 -22 5 -78 10 -38 18 -80 18 -92 1 -29 87 -118 130
-135 l35 -14 -23 -23 c-21 -21 -22 -24 -6 -41 9 -10 34 -21 56 -25 31 -5 45
-16 73 -55 24 -34 44 -50 66 -55 18 -4 56 -24 86 -45 70 -49 286 -146 344
-154 25 -4 86 -20 135 -36 50 -16 158 -39 240 -51 93 -13 171 -30 206 -45 78
-33 142 -45 227 -41 64 3 72 1 72 -15 0 -10 6 -18 14 -18 19 0 30 32 14 42
-10 6 -10 8 2 8 18 -1 60 -34 60 -48 0 -6 -7 -18 -16 -27 -24 -24 -10 -43 51
-70 30 -14 55 -29 55 -34 0 -5 27 -38 59 -74 35 -39 62 -79 66 -99 4 -18 18
-53 30 -78 27 -55 70 -181 79 -233 4 -20 15 -42 25 -48 11 -8 16 -20 13 -38
-2 -15 3 -67 11 -117 14 -88 16 -401 3 -423 -3 -5 -10 -31 -15 -58 -5 -26 -15
-61 -21 -78 -7 -16 -13 -57 -13 -89 -2 -47 -7 -65 -24 -82 -13 -13 -23 -28
-23 -35 0 -6 -6 -9 -12 -6 -24 9 -57 -11 -51 -31 5 -22 -11 -40 -64 -73 -20
-13 -54 -40 -75 -61 -21 -21 -44 -38 -52 -38 -18 0 -96 -51 -96 -62 0 -4 -25
-19 -55 -33 -30 -13 -58 -31 -61 -40 -3 -8 -17 -15 -30 -15 -14 0 -35 -7 -48
-16 -13 -8 -27 -11 -30 -6 -3 5 -31 -4 -63 -20 -31 -16 -63 -26 -71 -23 -8 3
-34 -2 -58 -10 -25 -8 -68 -15 -97 -16 -29 0 -61 -4 -71 -8 -10 -4 -42 -1 -70
6 -28 7 -75 13 -106 13 -32 0 -93 11 -141 26 -272 84 -253 76 -295 125 -22 26
-67 63 -101 84 -58 34 -113 85 -113 105 0 11 -57 30 -89 30 -39 0 -123 -43
-152 -77 -13 -16 -39 -36 -56 -43 -25 -12 -37 -28 -58 -83 -30 -75 -65 -108
-94 -90 -12 8 -15 22 -13 56 2 24 -1 48 -6 51 -6 3 -11 47 -11 97 -1 50 -4 95
-7 100 -3 5 -16 9 -30 9 -22 0 -24 3 -24 53 0 37 8 69 25 103 32 62 31 68 -5
114 -36 46 -38 72 -6 89 21 12 24 22 28 89 6 86 -4 128 -33 135 -28 7 -24 35
16 119 19 40 33 79 30 87 -3 7 0 19 5 27 6 7 16 43 22 81 10 62 11 87 5 193
-2 29 2 36 20 38 29 4 48 -27 73 -114 11 -40 27 -76 39 -85 17 -14 21 -29 21
-81 0 -76 18 -111 45 -88 14 12 18 12 26 -1 12 -19 11 -31 -6 -53 -22 -29 -19
-65 20 -194 53 -173 60 -184 120 -197 44 -9 50 -13 53 -38 2 -15 -6 -47 -18
-71 l-22 -43 22 -42 c12 -24 49 -73 82 -110 33 -36 73 -80 89 -97 16 -18 41
-35 56 -39 29 -7 67 -31 127 -81 24 -21 58 -37 90 -44 28 -6 89 -24 136 -40
154 -52 315 -63 461 -31 90 20 151 43 312 119 l98 45 -6 42 c-6 37 -3 45 26
76 50 53 88 144 101 242 6 48 9 90 5 93 -4 4 -15 0 -25 -9 -27 -25 -57 -21
-77 10 -17 26 -17 27 5 45 14 11 25 32 27 51 1 18 5 50 9 72 3 27 1 46 -9 59
-13 18 -15 18 -70 -2 -53 -20 -57 -20 -65 -4 -14 28 -8 47 15 50 28 4 51 65
33 87 -18 22 -29 19 -94 -25 -66 -45 -87 -49 -116 -20 -26 26 -25 42 5 70 14
13 25 29 25 37 0 15 43 28 62 18 7 -3 4 1 -6 9 -25 20 -34 20 -77 -3 -19 -11
-61 -22 -91 -26 -50 -6 -57 -5 -62 13 -8 25 7 65 35 90 30 29 19 57 -19 47
-99 -26 -181 -9 -156 32 7 10 21 18 33 17 28 -1 27 17 -2 45 -20 18 -28 20
-48 11 -35 -16 -69 -36 -82 -49 -6 -6 -18 -11 -27 -11 -9 0 -26 -14 -39 -31
-19 -25 -28 -30 -59 -27 -33 3 -37 6 -40 34 -3 29 1 33 47 53 27 11 57 21 65
21 20 0 20 9 -2 37 -13 18 -29 24 -70 26 -34 2 -62 11 -81 25 -16 12 -51 26
-76 32 -26 6 -60 17 -75 25 -15 8 -47 17 -71 21 -24 4 -61 15 -81 25 -47 24
-64 24 -111 -1 -48 -26 -66 -20 -117 38 -37 41 -43 45 -61 34 -31 -19 -88 -5
-95 23 -3 13 -15 32 -26 42 -20 18 -22 17 -108 -30 -49 -26 -96 -47 -105 -47
-26 0 -28 25 -5 70 18 35 25 41 46 37 13 -2 24 0 24 5 0 22 -32 68 -47 68 -9
0 -49 -18 -89 -40 -82 -45 -118 -50 -134 -20 -14 27 -9 34 55 75 62 40 90 75
80 105 -5 16 -12 19 -33 14 -15 -3 -39 -15 -54 -25 -15 -10 -36 -19 -46 -19
-29 0 -16 48 25 86 41 39 42 65 3 139 -16 31 -30 68 -30 81 0 21 -3 23 -26 14
-36 -14 -39 -13 -20 9 13 15 14 20 4 24 -11 5 -11 7 0 15 20 13 11 46 -13 50
-16 2 -24 15 -33 55 -17 74 -15 90 13 117 18 17 25 34 25 60 0 82 31 215 66
285 19 38 50 108 69 155 18 47 40 99 49 115 9 17 16 37 16 46 0 9 20 39 45 67
25 27 45 55 45 61 0 6 16 11 35 11 36 0 47 6 149 83 109 80 287 129 522 142
113 7 122 6 140 -13 19 -20 100 -42 153 -42 15 0 43 -11 62 -24 19 -14 52 -34
75 -44 22 -11 51 -34 63 -51 12 -17 26 -31 31 -31 31 0 116 -43 125 -62 6 -13
21 -29 35 -36 34 -18 137 -8 198 18 54 24 162 125 162 152 0 27 63 158 76 158
6 0 23 -9 38 -21z m1866 -70 c91 -6 260 -12 375 -14 116 -2 242 -9 280 -15 39
-6 91 -9 116 -5 26 3 77 -1 115 -9 38 -8 115 -20 171 -27 74 -9 107 -17 119
-30 11 -13 25 -16 48 -12 22 3 50 -2 82 -16 27 -12 69 -25 94 -28 36 -4 55
-15 95 -54 57 -55 92 -72 119 -57 27 15 64 1 80 -30 14 -27 13 -28 -15 -41
-16 -7 -29 -16 -29 -21 0 -4 16 -20 35 -34 23 -18 35 -35 35 -51 0 -26 33 -55
62 -55 22 0 24 -28 2 -37 -13 -5 -13 -7 -2 -14 19 -13 28 -11 28 6 0 8 9 19
20 25 13 7 20 7 20 1 0 -6 11 -13 25 -17 14 -3 25 -10 25 -14 0 -25 -25 -69
-45 -80 -29 -16 -30 -22 -9 -55 10 -15 14 -36 11 -53 -3 -15 0 -33 8 -42 17
-20 -5 -257 -29 -312 -20 -47 -20 -62 0 -83 15 -14 14 -19 -7 -50 -13 -19 -31
-35 -40 -35 -9 0 -22 -7 -29 -15 -7 -8 -21 -15 -30 -15 -10 0 -27 -10 -37 -22
-10 -13 -26 -27 -35 -33 -9 -5 -67 -44 -130 -86 l-113 -77 -87 -5 c-80 -4 -93
-8 -162 -48 -42 -24 -76 -47 -76 -51 0 -4 33 -14 73 -23 55 -12 80 -13 101 -6
39 15 67 14 87 -5 15 -14 23 -14 53 -3 41 15 56 7 37 -22 -20 -33 9 -54 108
-79 49 -12 104 -31 122 -42 19 -12 47 -23 63 -25 16 -2 35 -12 42 -22 7 -10
33 -24 58 -30 38 -9 45 -15 51 -42 4 -18 33 -59 70 -97 67 -72 85 -100 85
-130 0 -23 47 -44 79 -35 29 7 26 -13 -6 -45 -21 -21 -26 -35 -24 -62 1 -19 6
-39 10 -43 5 -5 4 -29 -1 -54 -8 -36 -7 -53 7 -83 15 -34 15 -40 2 -67 -9 -16
-19 -73 -23 -129 -4 -54 -15 -122 -25 -151 -9 -28 -15 -61 -12 -73 5 -17 -10
-36 -68 -92 -41 -39 -94 -87 -119 -106 -25 -20 -74 -61 -110 -92 -68 -60 -204
-160 -218 -160 -4 0 -13 -5 -19 -11 -17 -17 -238 -87 -333 -105 -58 -11 -106
-14 -150 -10 -36 4 -164 7 -285 6 -121 0 -247 4 -280 11 -91 16 -251 20 -340
9 -50 -7 -97 -7 -126 -2 -34 7 -58 5 -88 -5 -30 -10 -46 -11 -61 -3 -14 7 -32
8 -58 1 -31 -8 -297 -14 -467 -10 -88 2 -239 -17 -277 -36 -34 -17 -44 -17
-106 -5 -47 9 -74 9 -88 2 -20 -10 -171 -1 -192 12 -17 11 -15 51 4 67 20 17
227 26 382 17 l64 -3 49 55 c26 30 49 61 49 68 0 7 11 34 24 60 22 44 24 57
22 195 -2 140 -3 148 -25 163 -30 21 -26 75 7 89 20 9 22 17 22 80 0 58 -4 74
-20 87 -32 28 -36 65 -10 93 28 30 21 60 -12 49 -37 -12 -50 -10 -61 8 -10 15
-3 26 42 72 l54 55 4 134 4 135 -30 21 c-26 19 -29 24 -21 53 5 17 16 38 23
47 23 26 31 176 12 238 -16 54 -15 62 13 172 16 63 15 64 -6 82 -28 22 -28 36
5 84 27 40 29 55 17 153 -4 39 -2 59 10 77 21 32 20 52 -4 67 -27 17 -25 54 4
73 33 22 37 35 42 155 4 93 -11 250 -24 250 -2 0 -29 -14 -58 -31 -102 -58
-125 -5 -25 58 83 52 107 91 82 132 -7 11 -14 10 -40 -8 -19 -14 -42 -21 -61
-19 -28 3 -29 4 -17 28 7 13 36 38 64 54 47 27 52 32 46 55 -4 14 -7 36 -6 48
0 12 -7 29 -18 38 -14 14 -16 21 -7 35 15 24 3 39 -59 70 -44 22 -62 25 -198
27 -82 1 -166 6 -185 9 -19 4 -57 8 -85 9 -27 1 -63 7 -78 13 -24 10 -26 14
-16 33 11 21 14 21 207 14 260 -9 282 -9 452 5 80 6 212 12 293 15 82 2 152 6
155 10 4 4 25 4 47 0 22 -3 114 -10 205 -16z"/>
<path d="M8748 8873 c-31 -5 -35 -15 -13 -33 11 -9 20 -8 45 10 44 31 40 34
-32 23z"/>
<path d="M8990 8858 c-35 -20 -36 -23 -35 -79 0 -65 9 -72 45 -34 13 14 29 25
37 25 14 0 16 16 7 73 -7 42 -7 42 -54 15z"/>
<path d="M9020 8690 c-6 -11 -17 -20 -25 -20 -18 0 -19 -11 -2 -34 20 -28 59
-17 69 19 4 17 6 36 3 43 -7 19 -33 14 -45 -8z"/>
<path d="M7174 8661 c-38 -27 -94 -89 -94 -104 0 -3 10 -7 22 -9 21 -3 20 -6
-19 -43 -31 -30 -44 -54 -55 -97 -14 -55 -14 -57 5 -47 10 6 26 24 35 40 10
16 22 29 27 29 14 0 95 79 95 92 0 6 7 20 17 30 19 21 7 24 -45 9 -29 -9 -33
-8 -30 7 2 12 12 16 34 14 40 -4 56 16 52 68 l-3 42 -41 -31z"/>
<path d="M7229 8485 c-14 -7 -37 -31 -52 -52 -15 -21 -40 -46 -57 -56 -16 -10
-33 -29 -36 -42 -4 -16 -17 -28 -40 -35 -38 -13 -62 -46 -45 -63 16 -16 123
29 162 69 18 18 49 39 68 45 65 21 90 61 56 89 -8 7 -15 23 -15 36 0 27 -5 29
-41 9z"/>
<path d="M9040 8465 c-6 -8 -14 -32 -17 -53 -4 -31 0 -44 19 -66 l23 -28 19
21 c19 21 19 23 1 81 -19 63 -25 69 -45 45z"/>
<path d="M7270 8335 c-19 -14 -41 -25 -50 -25 -9 0 -28 -13 -43 -28 -15 -15
-49 -39 -77 -53 -48 -23 -61 -41 -40 -54 16 -10 12 -22 -8 -27 -25 -7 -18 -74
9 -88 18 -10 18 -11 -1 -43 -26 -42 -25 -51 7 -72 21 -14 30 -15 42 -6 52 38
79 51 105 51 l30 0 -34 -25 c-18 -14 -43 -28 -54 -31 -12 -4 -31 -17 -44 -29
-17 -17 -21 -29 -16 -54 4 -17 8 -31 11 -31 2 0 19 11 36 24 18 13 49 29 69
37 23 8 38 20 40 32 2 11 13 26 26 35 22 15 22 14 12 -14 -16 -40 -26 -51 -81
-81 -38 -20 -46 -29 -38 -39 12 -15 52 -3 83 24 15 14 14 10 -4 -21 -13 -22
-35 -44 -49 -50 -14 -6 -28 -12 -29 -13 -2 -1 -1 -12 3 -23 l6 -21 42 21 c54
28 183 114 226 151 18 16 49 37 67 46 41 19 43 30 7 34 -19 2 -38 -5 -61 -24
-28 -24 -62 -37 -62 -24 0 3 30 24 68 49 73 48 119 67 163 67 18 0 29 5 29 14
0 7 7 19 15 26 22 19 15 30 -30 46 -39 13 -40 13 -90 -25 -63 -48 -108 -71
-136 -71 -21 0 -21 1 -5 19 10 11 41 29 69 41 73 32 105 80 53 80 -18 0 -26 6
-28 21 -6 41 -32 46 -87 16 -61 -32 -78 -18 -21 18 45 29 53 50 15 43 -23 -5
-25 -2 -25 28 0 32 -1 33 -32 27 -19 -3 -45 -20 -60 -37 -29 -34 -33 -32 -18
8 5 14 16 26 25 26 8 0 15 5 15 10 0 6 7 10 15 10 8 0 15 7 15 15 0 23 -42 18
-80 -10z m110 -101 c0 -2 -9 -4 -21 -4 -11 0 -18 4 -14 10 5 8 35 3 35 -6z
m-66 -25 c-26 -29 -48 -39 -63 -30 -9 6 -3 14 21 29 44 29 68 29 42 1z m-129
-9 c-3 -5 -17 -10 -31 -10 -14 0 -22 4 -19 10 3 6 17 10 31 10 14 0 22 -4 19
-10z m250 -92 c20 1 20 1 1 -14 -11 -8 -30 -14 -43 -14 -29 0 -73 -28 -73 -46
0 -8 -10 -14 -25 -14 -13 0 -29 -8 -34 -17 -6 -10 -11 -14 -11 -9 0 14 32 46
46 46 7 0 18 9 24 20 6 11 17 20 25 20 8 0 20 9 27 20 8 13 19 18 28 14 8 -4
24 -6 35 -6z m-194 -28 c-13 -11 -31 -20 -40 -20 -10 0 -5 7 14 19 39 26 56
26 26 1z m-61 -64 c0 -2 -7 -7 -16 -10 -8 -3 -12 -2 -9 4 6 10 25 14 25 6z
m190 -34 c0 -11 -22 -32 -32 -32 -5 0 -4 9 2 20 11 20 30 28 30 12z m10 -86
c0 -16 -37 -32 -48 -21 -7 7 25 35 40 35 4 0 8 -6 8 -14z"/>
<path d="M7728 8014 c-23 -20 -54 -42 -68 -48 -14 -6 -37 -23 -52 -38 -14 -16
-35 -28 -47 -28 -11 0 -25 -9 -31 -20 -6 -11 -27 -27 -46 -35 -20 -8 -58 -35
-86 -60 -28 -25 -54 -45 -60 -45 -5 0 -6 -5 -3 -10 4 -6 16 -3 31 9 14 11 47
27 75 36 27 9 49 20 49 24 0 34 149 105 179 86 7 -4 23 1 37 10 26 17 41 15
29 -4 -3 -6 -14 -11 -23 -11 -9 0 -35 -14 -56 -30 -22 -17 -49 -30 -60 -30
-12 0 -53 -23 -91 -51 -39 -29 -95 -63 -125 -77 -64 -29 -94 -57 -86 -79 13
-32 129 16 199 82 28 26 93 55 123 55 13 0 24 4 24 9 0 22 74 101 109 117 34
15 38 20 30 36 -14 25 -5 36 36 44 20 3 38 10 41 15 3 5 14 9 25 9 10 0 19 4
19 9 0 11 -25 21 -49 21 -10 0 -30 9 -44 20 -14 11 -27 20 -30 20 -3 0 -25
-16 -49 -36z"/>
<path d="M7580 8000 c0 -13 46 -24 61 -14 9 5 7 10 -7 15 -28 11 -54 11 -54
-1z"/>
<path d="M7940 7955 c-9 -24 -123 -105 -147 -105 -7 0 -13 -7 -13 -15 0 -10
-10 -15 -28 -15 -16 0 -37 -9 -47 -20 -10 -11 -23 -20 -30 -20 -6 0 -23 -18
-38 -40 -24 -37 -24 -40 -6 -40 10 0 19 4 19 9 0 5 23 12 50 16 36 5 58 15 79
36 16 16 38 29 49 29 11 0 36 7 57 16 20 8 39 13 42 10 5 -5 -122 -81 -163
-97 -16 -5 -66 -35 -112 -66 -46 -30 -95 -58 -109 -62 -34 -9 -51 -34 -36 -53
8 -9 29 -12 67 -10 46 3 56 7 56 22 0 25 22 40 48 33 l21 -5 -22 -18 c-27 -22
-16 -38 16 -21 14 8 22 22 23 40 1 24 -2 28 -20 23 -18 -5 -16 0 11 26 38 39
47 40 39 7 -4 -15 0 -34 9 -48 14 -22 13 -25 -7 -44 -13 -11 -40 -26 -60 -32
-51 -17 -54 -26 -17 -45 44 -22 64 -20 107 9 20 14 42 25 49 25 7 0 32 18 55
40 30 30 48 40 67 38 19 -2 30 5 46 29 11 18 33 37 49 43 16 5 35 19 43 30 8
11 24 20 37 20 13 0 31 9 41 20 10 11 33 23 52 26 19 4 46 17 60 30 14 13 34
24 44 24 10 0 21 9 24 21 5 14 13 19 26 16 11 -3 16 -1 13 5 -4 5 -26 7 -53 3
-46 -6 -47 -6 -64 30 -13 28 -22 35 -36 30 -10 -3 -24 1 -31 10 -7 8 -23 15
-35 15 -24 0 -35 -17 -35 -54 0 -27 -18 -46 -42 -46 -11 0 -18 -7 -18 -20 0
-11 -5 -20 -10 -20 -6 0 -27 -11 -48 -24 -20 -13 -55 -29 -77 -36 -22 -6 -53
-26 -70 -44 -16 -18 -42 -38 -57 -44 -26 -11 -28 -9 -34 15 -5 20 -2 30 17 44
13 10 31 19 40 19 9 0 24 9 34 20 10 11 28 20 40 20 12 0 34 11 49 25 15 14
31 25 37 25 5 0 9 8 9 19 0 26 34 66 70 81 29 12 30 14 14 31 -10 11 -29 19
-43 19 -14 0 -41 4 -59 9 -30 9 -34 8 -42 -14z m170 -189 c0 -2 -11 -6 -25 -8
-13 -3 -22 -1 -19 3 5 9 44 13 44 5z m-82 -56 c-11 -18 -28 -27 -28 -16 0 6
30 36 36 36 2 0 -1 -9 -8 -20z"/>
<path d="M8452 7835 c-7 -8 -22 -15 -32 -15 -30 0 -24 -17 9 -23 32 -7 85 5
108 25 14 11 13 13 -8 19 -39 11 -63 9 -77 -6z"/>
<path d="M8672 7785 c-30 -16 -9 -36 30 -28 23 4 26 8 17 24 -11 22 -15 22
-47 4z"/>
<path d="M8435 7729 c-16 -11 -39 -17 -51 -14 -13 3 -38 -9 -74 -36 -29 -22
-66 -43 -82 -46 -16 -3 -33 -14 -38 -23 -11 -21 -64 -42 -86 -33 -10 4 -25 -4
-40 -21 -14 -14 -29 -26 -34 -26 -22 0 -170 -114 -170 -131 0 -33 119 -4 181
44 20 15 41 27 47 27 6 0 16 9 22 20 8 15 17 19 31 15 13 -4 19 -2 19 8 0 22
32 45 101 72 36 14 74 37 86 52 13 15 37 33 54 38 18 6 43 26 57 43 28 36 21
39 -23 11z"/>
<path d="M8766 7738 c-11 -6 -39 -8 -67 -5 -27 3 -51 2 -54 -4 -4 -6 -13 -6
-24 1 -28 14 -50 -8 -59 -60 -7 -40 -10 -45 -31 -42 -29 4 -71 -16 -71 -35 0
-8 -12 -13 -33 -13 -23 0 -44 -9 -67 -30 -18 -16 -37 -30 -42 -30 -5 0 -38
-21 -73 -47 -35 -27 -89 -66 -121 -87 -57 -39 -57 -39 -33 -52 70 -39 212 7
315 103 33 30 88 63 108 63 7 0 27 16 46 35 31 32 89 58 132 60 19 0 68 40 68
55 0 5 6 10 13 10 17 0 89 74 81 83 -11 11 -67 8 -88 -5z"/>
<path d="M8262 7728 c5 -15 37 -18 41 -3 1 6 -9 12 -22 13 -16 3 -22 -1 -19
-10z"/>
<path d="M8505 7719 c-4 -6 -5 -13 -2 -16 8 -7 47 7 47 18 0 13 -37 11 -45 -2z"/>
<path d="M7538 7671 c-34 -33 -35 -41 -3 -41 15 0 25 6 25 15 0 8 9 19 20 25
11 6 20 15 20 20 0 19 -35 8 -62 -19z"/>
<path d="M8878 7693 c-41 -10 -10 -33 44 -33 30 0 31 0 13 20 -18 20 -25 22
-57 13z"/>
<path d="M8803 7643 c-24 -9 -13 -23 18 -23 20 0 29 4 27 13 -5 13 -26 18 -45
10z"/>
<path d="M8853 7607 c-44 -40 -80 -60 -92 -53 -4 3 -17 -6 -29 -19 -11 -13
-40 -29 -64 -36 -24 -7 -61 -28 -84 -46 -23 -18 -51 -33 -63 -33 -11 0 -21 -6
-21 -14 0 -21 -47 -54 -86 -62 -20 -4 -44 -19 -60 -37 l-26 -31 25 -13 c25
-13 43 -8 109 27 10 6 24 7 33 4 10 -4 22 2 32 16 9 13 22 20 33 17 13 -3 20
3 24 22 3 15 20 35 40 48 30 18 37 19 47 7 15 -19 -6 -46 -34 -42 -11 2 -22
-3 -24 -9 -4 -12 17 -17 71 -16 18 0 18 -2 -3 -19 -13 -10 -33 -18 -45 -18
-14 0 -34 -17 -59 -50 -45 -61 -28 -67 40 -15 44 34 95 46 107 26 7 -11 45 -3
65 13 7 5 17 20 22 33 10 27 57 42 70 22 5 -8 10 -18 12 -22 1 -5 20 -5 42 -1
37 7 38 8 17 17 -18 8 -22 18 -22 52 0 38 3 42 34 55 19 7 39 24 45 37 9 19
18 23 57 23 l46 0 -23 -25 c-13 -13 -32 -25 -42 -25 -9 0 -30 -18 -45 -39 -15
-22 -36 -44 -47 -50 -16 -9 -13 -9 18 -5 35 6 37 5 37 -20 0 -17 -5 -26 -16
-26 -9 0 -32 -14 -51 -31 -26 -23 -42 -29 -59 -25 -13 4 -24 2 -24 -3 0 -25
-55 -72 -97 -83 -39 -9 -64 -30 -51 -43 2 -2 33 3 68 11 36 8 78 14 94 12 l30
-3 -47 -29 c-56 -36 -48 -52 17 -35 42 10 47 15 43 35 -5 26 10 36 33 24 8 -5
32 -2 54 5 21 7 54 11 73 8 29 -5 34 -9 29 -27 -3 -12 -6 -24 -6 -27 0 -11
-78 -32 -99 -26 -13 3 -21 0 -21 -8 0 -14 45 -27 107 -28 36 -1 40 -4 32 -19
-9 -16 -65 -38 -99 -38 -25 0 -40 -21 -40 -57 l0 -34 60 3 c55 2 63 6 96 39
31 32 40 36 58 28 12 -6 28 -20 35 -31 16 -25 4 -35 -51 -44 -23 -4 -38 -12
-38 -21 0 -8 -22 -38 -50 -67 -27 -29 -50 -56 -50 -61 0 -4 23 -5 50 -3 49 5
50 5 50 -23 0 -22 -5 -29 -19 -29 -24 0 -38 -19 -22 -29 6 -4 10 -18 9 -32 -4
-36 49 -39 82 -4 28 30 60 33 60 6 0 -11 -15 -28 -35 -40 -19 -11 -35 -27 -35
-34 0 -8 -9 -21 -21 -28 -18 -13 -20 -20 -14 -61 l7 -48 39 3 c23 2 44 10 52
21 12 17 14 17 27 1 13 -16 11 -21 -20 -46 -19 -16 -38 -29 -42 -29 -4 0 -8
-4 -8 -10 0 -16 26 -12 63 10 34 20 67 81 67 123 0 19 -37 37 -59 29 -7 -3 4
12 24 33 37 37 37 45 0 58 -16 6 25 58 43 55 24 -4 37 69 27 156 -6 62 -8 66
-23 52 -16 -13 -18 -12 -29 11 -11 24 -11 25 11 21 20 -4 25 0 30 25 11 53 6
84 -14 102 -11 10 -16 23 -12 29 11 18 11 70 -1 85 -7 8 -12 35 -13 61 0 34
-11 65 -40 118 -37 69 -41 72 -74 71 l-35 -2 33 -6 c31 -6 32 -7 19 -26 -13
-17 -18 -18 -41 -7 -43 19 -53 15 -68 -30 -17 -54 -61 -82 -112 -72 -20 3 -33
11 -30 16 4 5 21 7 40 3 33 -6 34 -5 34 27 0 27 9 41 48 74 44 38 86 61 104
56 15 -4 20 48 8 82 -14 43 -91 112 -133 120 -39 8 -89 -13 -82 -35 4 -12 -1
-15 -25 -11 -36 5 -37 8 -7 33 l22 20 -26 -3 c-14 -2 -33 3 -42 10 -13 11 -21
8 -54 -21z m77 -78 c8 -1 0 -4 -19 -8 -50 -9 -62 -34 -28 -61 31 -25 27 -43
-9 -34 -17 4 -26 1 -30 -10 -3 -9 -12 -16 -19 -16 -8 0 -27 -11 -43 -25 -35
-29 -41 -30 -68 -11 -18 14 -18 15 12 26 27 9 30 15 26 38 -5 26 -4 26 14 11
10 -9 30 -20 44 -23 l25 -7 -22 20 c-40 34 -23 92 21 75 8 -3 19 4 26 16 8 16
18 20 33 16 12 -3 29 -6 37 -7z m27 -45 c-3 -3 -12 -4 -19 -1 -8 3 -5 6 6 6
11 1 17 -2 13 -5z m35 -271 c8 -10 5 -13 -10 -13 -27 0 -52 10 -52 21 0 13 50
7 62 -8z m288 3 c0 -8 -13 -17 -30 -21 -16 -4 -38 -17 -49 -31 -10 -13 -26
-24 -35 -24 -24 0 -96 24 -96 32 0 9 38 21 48 14 5 -3 26 6 48 19 44 28 114
34 114 11z m-54 -132 c-3 -9 -6 -18 -6 -20 0 -2 -10 -4 -22 -4 -20 0 -21 1 -3
20 22 24 40 26 31 4z m62 -66 c27 -27 0 -38 -40 -17 -17 9 -18 13 -7 20 19 12
33 11 47 -3z m-8 -74 c0 -14 -3 -14 -15 -4 -8 7 -15 14 -15 16 0 2 7 4 15 4 8
0 15 -7 15 -16z m7 -136 c-6 -4 -14 -5 -18 -2 -4 2 -10 -5 -14 -16 -3 -11 -13
-20 -20 -20 -8 0 -19 -9 -25 -21 -7 -11 -14 -18 -17 -16 -9 10 30 65 49 70 11
3 16 11 12 21 -5 13 -2 13 19 3 16 -7 21 -14 14 -19z m-72 -378 c-3 -5 -11
-10 -16 -10 -6 0 -7 5 -4 10 3 6 11 10 16 10 6 0 7 -4 4 -10z"/>
<path d="M8197 7511 c-17 -18 -16 -19 14 -25 39 -8 44 -4 29 23 -13 25 -19 25
-43 2z"/>
<path d="M8105 7419 c-4 -6 -4 -13 -1 -16 8 -8 36 5 36 17 0 13 -27 13 -35 -1z"/>
<path d="M8646 7214 c-9 -23 -8 -24 24 -24 32 0 37 9 18 28 -17 17 -35 15 -42
-4z"/>
<path d="M8760 7202 c0 -14 6 -22 16 -22 14 0 15 3 3 18 -7 9 -15 19 -16 21
-2 2 -3 -5 -3 -17z"/>
<path d="M8974 7019 c-6 -10 6 -15 49 -22 39 -6 29 16 -11 24 -18 4 -35 3 -38
-2z"/>
<path d="M8595 6970 c-9 -15 4 -30 26 -30 12 0 19 7 19 20 0 21 -33 29 -45 10z"/>
<path d="M7156 6908 c-19 -27 -13 -38 17 -30 24 6 37 19 37 40 0 20 -38 14
-54 -10z"/>
<path d="M9150 6905 c0 -8 5 -15 10 -15 6 0 10 7 10 15 0 8 -4 15 -10 15 -5 0
-10 -7 -10 -15z"/>
<path d="M8770 6880 c-19 -15 -21 -20 -9 -20 16 0 46 27 38 35 -2 2 -15 -5
-29 -15z"/>
<path d="M7178 6833 c-24 -6 -23 -18 3 -44 23 -23 55 -18 45 7 -3 9 -6 22 -6
30 0 14 -10 16 -42 7z"/>
<path d="M7215 6750 c-10 -11 -24 -20 -32 -20 -9 0 -12 -7 -7 -25 3 -14 2 -25
-4 -25 -11 0 -32 -76 -32 -118 0 -38 34 -49 79 -26 18 9 34 14 37 11 11 -10
-10 -58 -41 -94 -18 -21 -36 -53 -39 -71 -5 -20 -14 -32 -24 -32 -15 -1 -14
-2 2 -12 14 -8 24 -8 37 1 27 16 28 15 22 -26 -3 -24 -17 -49 -35 -67 -30 -29
-30 -30 -23 -105 4 -42 8 -77 10 -79 12 -13 50 33 81 98 6 14 21 34 33 44 11
11 21 25 21 33 0 7 4 13 10 13 5 0 17 15 26 33 9 17 22 35 28 40 8 5 6 10 -4
17 -22 14 -56 12 -70 -5 -12 -14 -15 -14 -31 1 -26 24 -24 31 10 26 22 -3 36
3 60 27 32 31 32 32 21 85 -12 60 -28 78 -82 95 -48 16 -63 36 -19 26 l31 -7
0 49 c0 27 -4 53 -9 59 -5 5 -11 22 -13 38 -4 37 -19 42 -43 16z"/>
<path d="M7391 6269 c-6 -18 -11 -34 -11 -35 0 -7 66 -4 73 2 10 10 -22 64
-37 64 -8 0 -19 -14 -25 -31z"/>
<path d="M9095 6160 c-10 -11 -15 -23 -12 -26 4 -4 9 1 13 10 3 9 12 16 20 16
8 0 14 5 14 10 0 16 -15 12 -35 -10z"/>
<path d="M10453 9143 c-7 -2 -13 -8 -13 -12 0 -11 49 -1 56 10 5 9 -22 11 -43
2z"/>
<path d="M10715 9130 c-14 -15 -15 -20 -4 -20 28 0 89 21 89 30 0 19 -66 11
-85 -10z"/>
<path d="M10944 9141 c10 -15 55 -19 67 -5 9 11 4 14 -30 14 -23 0 -40 -4 -37
-9z"/>
<path d="M11135 9121 c-62 -5 -70 -9 -73 -27 -2 -12 -12 -30 -23 -40 -27 -25
-24 -31 21 -38 51 -8 52 -26 3 -63 -54 -41 -103 -89 -103 -102 0 -6 11 -16 25
-21 32 -12 31 -19 -5 -65 -31 -39 -34 -59 -24 -138 6 -41 10 -46 46 -61 l40
-15 -26 -45 c-22 -38 -24 -48 -15 -75 9 -25 8 -34 -5 -47 -9 -8 -16 -22 -16
-29 0 -34 36 -128 52 -136 17 -9 17 -12 2 -34 -17 -26 -12 -45 11 -45 39 0 17
-70 -35 -114 -39 -32 -45 -69 -19 -107 16 -23 17 -28 3 -47 -11 -17 -13 -36
-8 -80 5 -45 2 -66 -10 -90 -20 -39 -20 -44 4 -69 17 -19 24 -20 52 -11 30 9
337 23 413 18 93 -5 289 1 345 11 36 7 96 27 135 46 38 18 79 33 92 33 15 0
32 14 51 43 16 23 39 50 49 60 11 10 28 36 38 58 18 39 18 40 -3 55 -35 24
-26 53 37 119 70 73 80 100 56 152 -17 34 -17 39 -2 65 14 25 14 29 -4 52 -19
24 -19 28 -5 48 24 34 17 102 -10 97 -24 -4 -51 3 -74 20 l-25 19 48 42 c51
45 53 60 6 60 -36 0 -38 18 -4 58 33 39 32 58 -4 76 -30 16 -41 34 -41 69 0
12 -23 42 -57 74 -48 44 -64 53 -95 53 -28 0 -45 7 -67 29 -16 16 -46 34 -65
41 -20 6 -36 17 -36 25 0 28 -34 40 -133 45 -78 4 -102 9 -112 23 -11 15 -32
17 -186 15 -96 -1 -205 -4 -244 -7z"/>
<path d="M10564 9089 c-19 -22 -19 -22 6 -14 14 4 32 13 40 21 12 12 12 14 -6
14 -12 0 -29 -10 -40 -21z"/>
<path d="M10750 9086 c-82 -29 -159 -70 -243 -130 -36 -25 -80 -51 -99 -58
-18 -6 -44 -21 -58 -34 -21 -19 -25 -31 -22 -64 6 -61 42 -51 56 16 8 36 39
68 76 79 14 4 45 22 70 40 25 18 92 56 150 84 98 48 168 91 145 90 -5 0 -39
-11 -75 -23z"/>
<path d="M10463 9026 c-47 -22 -71 -42 -61 -51 5 -5 79 30 102 49 32 26 13 27
-41 2z"/>
<path d="M10814 8966 c-34 -12 -88 -37 -120 -56 -53 -29 -291 -184 -304 -197
-13 -13 127 59 240 123 69 39 152 85 185 102 112 58 111 70 -1 28z"/>
<path d="M10358 8958 c-16 -5 -28 -16 -28 -24 0 -21 14 -17 40 11 13 14 22 25
19 24 -2 0 -16 -5 -31 -11z"/>
<path d="M12387 8844 c-26 -14 -50 -31 -53 -38 -3 -8 -23 -21 -44 -31 -48 -22
-63 -48 -22 -39 44 9 146 56 155 70 4 8 16 14 27 14 32 0 50 11 50 31 0 27
-53 24 -113 -7z"/>
<path d="M10790 8757 c-76 -25 -157 -72 -238 -137 -32 -25 -77 -60 -102 -77
-51 -35 -96 -80 -88 -88 3 -3 18 5 33 17 15 12 54 34 87 50 32 15 73 38 91 52
18 13 66 42 107 64 168 90 214 118 218 130 6 18 -33 14 -108 -11z"/>
<path d="M12428 8734 c-16 -8 -28 -19 -28 -25 0 -6 -8 -8 -18 -5 -12 4 -32 -7
-62 -35 l-44 -42 34 8 c19 4 39 14 43 21 4 8 13 14 19 14 7 0 0 -13 -15 -28
l-27 -28 30 -11 c39 -15 38 -26 -5 -46 -19 -9 -35 -22 -35 -28 0 -7 -7 -17
-16 -23 -18 -13 -10 -66 10 -66 24 0 123 41 171 71 27 17 70 34 95 38 69 11
105 32 105 61 0 25 0 25 -94 24 -91 -2 -94 -3 -121 -33 -28 -31 -50 -40 -50
-22 0 6 5 13 11 17 6 3 9 14 6 24 -3 11 2 28 10 39 8 12 11 21 7 21 -5 0 -3 5
4 12 13 13 17 58 5 58 -5 -1 -20 -8 -35 -16z"/>
<path d="M10458 8659 c-60 -35 -104 -79 -80 -79 11 0 84 51 130 92 45 38 30
35 -50 -13z"/>
<path d="M10668 8542 c-100 -54 -321 -212 -297 -212 9 0 27 9 40 19 14 10 40
26 59 34 19 8 65 41 101 74 36 33 81 65 100 72 19 7 41 17 49 22 8 5 23 12 33
15 17 6 24 24 10 24 -5 0 -47 -22 -95 -48z"/>
<path d="M10862 8578 c-19 -19 -14 -30 10 -26 13 2 24 11 26 21 4 20 -18 23
-36 5z"/>
<path d="M10832 8480 c-28 -10 -76 -32 -105 -48 -167 -93 -201 -113 -228 -136
-17 -15 -34 -26 -39 -26 -5 0 -30 -18 -57 -40 -26 -22 -54 -45 -61 -51 -7 -6
-11 -13 -8 -16 6 -6 96 47 220 130 50 33 128 78 175 99 47 21 93 43 101 49 16
10 30 16 55 24 15 4 22 35 8 35 -5 -1 -32 -9 -61 -20z"/>
<path d="M10786 8339 c-55 -27 -105 -49 -112 -49 -15 0 -74 -48 -74 -61 0 -19
39 -8 75 21 22 17 50 30 66 30 17 0 32 7 38 19 6 10 28 26 49 34 36 14 70 43
61 52 -2 2 -49 -19 -103 -46z"/>
<path d="M12555 8328 c-16 -5 -41 -13 -55 -17 -14 -3 -23 -9 -20 -12 9 -10
-22 -39 -41 -39 -11 0 -37 -13 -60 -29 -22 -17 -46 -32 -52 -34 -8 -3 -5 -12
9 -26 19 -21 24 -21 62 -9 23 7 42 17 42 23 1 18 27 45 47 48 12 1 36 14 54
28 19 13 46 30 62 37 30 13 35 27 11 36 -18 7 -20 7 -59 -6z"/>
<path d="M10882 8294 c9 -9 21 -13 28 -9 14 9 -5 25 -30 25 -12 0 -12 -3 2
-16z"/>
<path d="M12740 8290 c-8 -5 -27 -10 -42 -10 -16 0 -37 -9 -47 -19 -11 -11
-33 -26 -48 -35 -15 -8 -39 -24 -52 -35 -13 -12 -32 -21 -43 -21 -10 0 -18 -5
-18 -10 0 -20 30 -22 91 -6 46 11 66 13 76 5 15 -13 18 -75 3 -84 -5 -3 -10
-13 -10 -22 0 -14 3 -14 23 1 12 9 30 19 39 22 30 10 77 160 63 203 -7 23 -13
25 -35 11z"/>
<path d="M10765 8230 c-38 -20 -102 -55 -142 -76 -39 -22 -111 -67 -159 -102
-48 -35 -99 -69 -115 -77 -32 -17 -43 -31 -34 -45 5 -9 64 24 96 55 9 8 23 15
32 15 19 0 67 21 67 29 0 17 54 62 67 56 9 -3 23 1 32 8 9 8 32 20 51 27 19 8
46 22 60 32 62 47 117 78 138 78 15 0 22 6 22 20 0 30 -34 24 -115 -20z"/>
<path d="M10864 8160 c-37 -17 -61 -50 -47 -64 4 -4 47 11 93 34 19 9 26 50 8
50 -7 -1 -32 -9 -54 -20z"/>
<path d="M10755 8090 c-22 -10 -49 -25 -60 -35 l-20 -17 20 7 c11 4 34 11 51
16 30 9 62 35 53 44 -3 2 -22 -4 -44 -15z"/>
<path d="M10825 8022 c-49 -27 -133 -75 -185 -109 -52 -33 -124 -75 -160 -93
-36 -18 -83 -49 -106 -70 -23 -21 -51 -41 -63 -45 -13 -4 -21 -15 -21 -29 0
-36 10 -37 50 -6 21 17 43 30 49 30 10 0 63 34 240 151 40 27 81 49 90 49 10
0 30 13 45 29 16 16 50 39 76 50 44 19 90 61 90 82 0 15 -12 10 -105 -39z"/>
<path d="M12576 7975 c-11 -8 -29 -15 -41 -15 -12 0 -36 -16 -55 -35 -23 -24
-43 -35 -62 -35 -15 0 -36 -8 -47 -19 -10 -10 -25 -21 -32 -23 -8 -3 -11 -8
-8 -11 12 -14 299 128 299 148 0 11 -36 3 -54 -10z"/>
<path d="M10903 7958 c-31 -15 -29 -30 2 -16 14 6 25 15 25 20 0 9 1 10 -27
-4z"/>
<path d="M10825 7930 c-4 -6 5 -10 20 -10 15 0 24 4 20 10 -3 6 -12 10 -20 10
-8 0 -17 -4 -20 -10z"/>
<path d="M10453 7903 c-24 -13 -43 -29 -43 -34 0 -13 88 32 94 48 7 18 -2 15
-51 -14z"/>
<path d="M10812 7870 c-6 -11 -18 -17 -26 -14 -27 10 -506 -329 -506 -358 0
-10 9 -5 52 24 14 10 33 18 42 18 9 0 16 4 16 8 0 5 19 19 43 32 23 13 68 43
99 67 31 24 76 50 100 58 24 9 66 31 93 50 28 18 68 37 89 41 41 7 96 53 96
79 0 24 -82 20 -98 -5z"/>
<path d="M12180 7799 c-22 -23 -40 -45 -40 -50 0 -14 54 -11 125 7 53 13 65
20 65 37 0 28 -28 46 -73 47 -31 0 -44 -7 -77 -41z"/>
<path d="M10834 7731 c-59 -15 -260 -138 -335 -206 -66 -61 -166 -128 -188
-128 -21 0 -41 -16 -41 -33 0 -25 37 -15 82 21 24 19 66 46 93 59 28 13 70 42
95 64 26 23 65 45 90 52 24 6 52 22 62 35 10 13 55 47 98 76 44 28 80 56 80
60 0 5 -1 9 -2 8 -2 -1 -17 -4 -34 -8z"/>
<path d="M10804 7562 c-23 -9 -48 -22 -55 -28 -25 -21 -78 -44 -99 -44 -11 0
-20 -7 -20 -15 0 -9 -19 -24 -42 -34 -39 -17 -151 -105 -265 -208 l-43 -38 -2
-132 c-2 -72 0 -134 3 -137 3 -4 32 -4 63 0 46 6 66 15 118 55 52 40 74 50
130 60 57 10 67 15 63 29 -6 19 19 45 34 36 5 -4 12 -2 16 4 6 10 30 24 133
80 26 14 53 37 62 52 13 25 13 29 -2 45 -16 16 -19 16 -36 0 -10 -9 -23 -17
-28 -17 -5 0 -17 -9 -27 -20 -9 -11 -26 -20 -38 -20 -12 0 -37 -14 -56 -31
-19 -16 -42 -29 -51 -27 -10 2 -27 -9 -39 -23 -13 -16 -41 -31 -68 -38 -25 -6
-45 -16 -45 -21 0 -5 -18 -19 -40 -30 -22 -11 -40 -25 -40 -30 0 -14 -55 -40
-85 -40 -14 0 -25 6 -25 14 0 17 78 89 121 112 19 9 45 25 59 36 14 11 55 38
92 61 108 69 108 69 69 62 -19 -3 -57 -22 -85 -44 -103 -77 -125 -85 -180 -60
-38 18 -40 47 -4 80 16 16 35 29 40 29 5 0 33 20 61 45 29 25 57 45 63 45 7 0
31 16 54 35 25 21 53 35 69 35 27 0 98 44 166 104 32 28 36 35 20 35 -11 0
-39 -8 -61 -17z"/>
<path d="M11620 7559 c-69 -5 -144 -13 -166 -18 -23 -6 -97 -16 -165 -22 -68
-6 -140 -14 -159 -18 -34 -7 -92 6 -132 29 -13 7 -20 5 -26 -8 -16 -30 -3 -42
44 -42 35 0 44 -3 44 -18 0 -18 -51 -72 -68 -72 -44 0 -36 -94 8 -97 42 -2 46
-5 15 -12 -25 -5 -32 -13 -42 -51 -6 -25 -12 -81 -12 -126 l-1 -81 28 4 c15 3
35 -2 46 -10 25 -18 14 -49 -30 -89 -39 -36 -42 -53 -14 -68 27 -14 25 -26
-10 -67 -32 -36 -37 -66 -19 -107 9 -19 8 -29 -3 -45 -14 -19 -13 -26 5 -62
l20 -40 -23 -31 c-27 -36 -17 -47 43 -46 21 0 43 -4 49 -10 18 -18 3 -56 -32
-80 -27 -18 -60 -66 -60 -88 0 -11 34 -2 44 12 9 12 11 7 8 -25 -3 -35 -8 -40
-30 -43 -32 -4 -35 -26 -7 -42 39 -21 39 -42 3 -78 -24 -24 -17 -66 17 -119
33 -51 100 -81 192 -87 71 -5 73 -5 57 -24 -33 -35 -6 -43 154 -43 81 0 152
-2 157 -5 11 -4 157 28 298 66 149 41 191 65 299 177 54 56 94 105 89 110 -4
4 -28 1 -52 -7 -24 -9 -50 -16 -57 -16 -22 0 -9 43 16 56 13 6 30 21 37 32 8
11 32 27 54 36 48 18 76 64 67 107 -4 21 1 39 19 65 33 48 33 82 0 90 -33 8
-32 27 6 62 38 35 42 79 10 100 -24 17 -27 39 -7 61 8 9 18 28 21 44 6 22 4
27 -12 27 -10 0 -29 7 -41 16 -23 16 -30 44 -10 44 6 0 22 9 34 21 24 22 24
24 -22 124 -7 17 -22 55 -33 85 -24 65 -47 101 -155 242 -43 57 -90 109 -105
117 -14 7 -37 24 -51 37 -25 23 -39 26 -180 38 -19 1 -91 -1 -160 -5z"/>
<path d="M10824 7455 c-20 -25 -42 -45 -49 -45 -7 0 -18 -7 -25 -15 -7 -8 -20
-15 -30 -15 -18 0 -47 -27 -38 -35 6 -6 175 79 208 104 20 16 22 21 11 35 -21
25 -37 19 -77 -29z"/>
<path d="M12173 7449 c-18 -12 -33 -23 -33 -25 0 -14 51 0 80 21 32 24 33 25
9 25 -13 0 -39 -10 -56 -21z"/>
<path d="M12251 7420 c-24 -11 -41 -23 -38 -26 8 -9 74 15 87 32 17 19 4 17
-49 -6z"/>
<path d="M12341 7332 c-75 -40 -84 -50 -56 -67 12 -8 19 -6 26 8 6 10 40 32
75 49 36 17 67 35 70 39 13 22 -49 6 -115 -29z"/>
<path d="M10724 7315 c-10 -8 -14 -15 -8 -15 5 0 19 7 30 15 10 8 14 15 8 15
-5 0 -19 -7 -30 -15z"/>
<path d="M12449 7310 l-24 -20 33 11 c35 12 52 29 29 29 -8 0 -25 -9 -38 -20z"/>
<path d="M12500 7285 c-19 -14 -42 -25 -52 -25 -9 0 -21 -7 -26 -15 -4 -9 -19
-17 -33 -19 -45 -4 -104 -56 -65 -56 20 0 250 118 254 130 7 19 -43 9 -78 -15z"/>
<path d="M12600 7230 c-19 -11 -42 -19 -50 -20 -27 0 -190 -91 -200 -111 -6
-10 -7 -19 -3 -19 26 0 84 23 113 45 19 14 43 25 54 25 11 0 30 9 42 21 12 11
37 28 55 37 18 9 35 23 37 30 5 16 -7 15 -48 -8z"/>
<path d="M12755 7220 c-3 -5 1 -10 9 -10 8 0 18 5 21 10 3 6 -1 10 -9 10 -8 0
-18 -4 -21 -10z"/>
<path d="M12695 7200 c-8 -13 5 -13 25 0 13 8 13 10 -2 10 -9 0 -20 -4 -23
-10z"/>
<path d="M12710 7163 c-19 -8 -42 -19 -50 -24 -8 -5 -22 -12 -30 -15 -45 -17
-240 -140 -240 -152 0 -14 74 11 123 42 31 20 65 36 75 36 10 0 27 9 37 20 10
11 23 20 29 20 6 0 33 11 61 25 27 13 59 27 70 30 20 6 20 7 1 21 -24 17 -32
17 -76 -3z"/>
<path d="M10830 7138 c-81 -25 -119 -52 -127 -89 -7 -37 -46 -63 -84 -55 -16
3 -29 1 -29 -4 0 -6 -13 -10 -30 -10 -20 0 -30 -5 -30 -15 0 -8 -9 -15 -19
-15 -11 0 -34 -12 -52 -27 -18 -16 -57 -41 -88 -58 -56 -30 -76 -60 -47 -71
19 -7 58 13 176 93 51 34 107 65 126 69 19 3 34 10 34 15 0 5 14 9 30 9 17 0
30 4 30 10 0 5 12 15 26 23 14 7 31 24 37 38 7 13 34 36 60 50 92 50 86 67
-13 37z"/>
<path d="M12819 7140 l-24 -19 31 -1 c31 0 60 21 47 33 -11 12 -30 8 -54 -13z"/>
<path d="M12760 7056 c-41 -18 -94 -42 -117 -54 -23 -12 -52 -22 -63 -22 -12
0 -40 -13 -63 -29 -23 -15 -57 -36 -74 -45 -28 -14 -33 -22 -33 -51 0 -29 4
-35 22 -35 12 0 31 8 42 18 40 35 211 137 256 152 48 16 150 79 150 92 0 17
-48 6 -120 -26z"/>
<path d="M12434 7066 c-10 -8 -15 -18 -11 -22 4 -4 15 0 24 9 22 21 12 31 -13
13z"/>
<path d="M12871 7024 c-25 -13 -50 -23 -57 -20 -7 3 -20 -4 -29 -14 -10 -11
-21 -17 -25 -15 -4 3 -13 -2 -20 -10 -7 -8 -25 -15 -41 -15 -18 0 -30 -6 -34
-19 -3 -10 -17 -22 -31 -25 -32 -8 -141 -96 -118 -96 23 0 3 -23 -53 -61 -44
-30 -50 -43 -34 -68 7 -11 17 -9 55 13 162 93 170 96 186 66 15 -29 9 -33 -52
-35 -49 -2 -54 -4 -63 -31 -12 -35 -22 -44 -52 -44 -13 0 -23 -5 -23 -11 0 -7
-15 -26 -34 -43 -63 -57 -52 -113 12 -66 24 18 34 20 50 11 33 -17 43 -14 36
13 -5 22 -2 26 28 34 21 6 35 5 40 -2 4 -6 14 -6 30 1 l23 10 -22 7 c-28 9
-30 26 -4 26 11 0 29 14 41 30 17 23 29 30 56 30 26 0 43 8 70 35 19 19 45 35
57 35 21 -1 20 -1 -5 -17 -15 -10 -30 -23 -33 -31 -8 -20 23 -26 50 -8 44 29
48 17 5 -19 -23 -19 -52 -35 -64 -35 -12 0 -39 -12 -61 -27 -22 -15 -74 -42
-115 -60 -41 -17 -91 -45 -110 -61 -19 -15 -56 -42 -81 -59 -51 -35 -75 -60
-66 -70 10 -10 124 44 239 113 59 36 131 73 160 83 29 11 83 36 120 57 53 31
70 47 83 77 17 44 19 71 5 97 -6 11 -6 21 -1 24 14 9 10 97 -4 103 -32 12
-149 -61 -165 -103 -8 -19 -17 -24 -45 -24 -31 0 -34 2 -26 18 16 30 44 50
116 82 86 39 109 58 94 77 -6 7 -18 13 -25 13 -18 0 -18 14 1 30 8 7 15 16 15
21 0 16 -35 9 -79 -17z m23 -47 c-70 -41 -122 -65 -128 -60 -12 12 -6 19 28
31 19 7 40 19 46 27 7 8 27 15 44 15 29 0 30 -1 10 -13z m-193 -97 c-22 -19
-51 -27 -51 -15 0 6 59 34 70 34 3 0 -6 -9 -19 -19z m-86 -40 c-3 -5 -11 -10
-16 -10 -6 0 -7 5 -4 10 3 6 11 10 16 10 6 0 7 -4 4 -10z m90 -44 c-32 -14
-41 -13 -30 3 3 6 18 11 33 11 l27 -1 -30 -13z m257 -18 c-6 -6 -25 -12 -41
-12 -34 -1 -28 10 9 17 43 7 44 7 32 -5z"/>
<path d="M10753 6940 c-24 -10 -43 -23 -43 -27 0 -9 -70 -33 -95 -33 -9 0 -24
-13 -33 -30 -9 -16 -22 -30 -28 -30 -5 0 -28 -13 -50 -29 -21 -15 -52 -31 -68
-35 -16 -4 -42 -23 -59 -42 -17 -18 -36 -34 -43 -34 -14 0 -59 -68 -51 -76 7
-7 63 21 105 53 18 13 58 36 88 50 31 14 65 34 74 43 10 10 33 21 51 25 19 4
47 19 63 32 16 13 63 42 105 63 109 56 137 76 116 84 -31 12 -90 6 -132 -14z"/>
<path d="M12444 6785 c-15 -11 -16 -14 -4 -15 21 0 44 16 33 23 -6 4 -19 0
-29 -8z"/>
<path d="M10716 6750 c-19 -6 -19 -7 -1 -14 10 -3 22 -3 28 3 12 12 -4 20 -27
11z"/>
<path d="M10784 6650 c-18 -4 -47 -17 -67 -29 -19 -11 -43 -21 -54 -21 -10 0
-54 -22 -98 -50 -44 -27 -84 -50 -90 -50 -6 0 -21 -11 -33 -25 -12 -14 -31
-25 -42 -25 -11 0 -20 -4 -20 -10 0 -5 -20 -23 -45 -40 -44 -30 -57 -50 -33
-50 7 0 24 12 39 26 14 14 33 26 41 28 8 1 27 12 42 24 16 12 42 22 57 22 18
0 29 5 29 14 0 18 77 56 112 56 15 0 51 18 85 44 32 24 73 51 91 60 17 9 32
21 32 26 0 11 -2 11 -46 0z"/>
<path d="M12690 6641 c-14 -4 -20 -10 -14 -14 6 -3 20 0 30 8 21 16 20 16 -16
6z"/>
<path d="M12952 6620 c-7 -11 -18 -20 -25 -20 -17 0 -42 -40 -25 -40 7 -1 -9
-10 -37 -21 -27 -11 -58 -18 -67 -15 -9 2 -24 -5 -34 -15 -21 -24 -89 -59
-113 -59 -10 0 -22 -7 -25 -15 -3 -9 -30 -27 -60 -40 -30 -13 -57 -29 -61 -35
-3 -5 -21 -16 -38 -24 -36 -15 -107 -79 -107 -95 0 -28 75 7 215 98 43 29 105
59 137 68 35 10 75 31 104 55 51 42 103 56 69 18 -10 -11 -33 -25 -51 -32 -43
-15 -33 -30 14 -22 l37 6 -48 -26 c-27 -15 -58 -26 -70 -25 -85 4 -110 0 -131
-20 -12 -12 -25 -21 -28 -21 -3 0 -25 -18 -49 -40 -28 -26 -53 -40 -71 -40
-33 0 -58 -24 -58 -56 0 -21 -4 -24 -32 -22 -25 2 -33 -1 -36 -17 -2 -11 -24
-42 -49 -68 -51 -54 -51 -70 0 -38 19 11 42 21 52 21 9 0 79 37 154 83 148 91
241 137 276 137 12 0 30 9 41 21 10 12 36 30 57 40 20 11 48 36 61 57 13 20
31 43 40 51 20 17 20 31 2 56 -14 19 -15 19 -37 0 l-22 -20 12 23 c7 12 9 32
6 42 -5 15 -2 20 14 20 23 0 54 27 46 41 -11 16 -50 9 -63 -11z"/>
<path d="M10285 6541 c-8 -27 -2 -36 19 -24 14 8 14 11 2 28 -13 18 -14 18
-21 -4z"/>
<path d="M10750 6491 c-14 -10 -37 -21 -51 -24 -15 -4 -49 -21 -76 -39 -28
-18 -64 -41 -82 -50 -17 -9 -31 -24 -31 -33 0 -20 12 -19 43 5 14 11 32 20 40
20 7 0 22 9 32 20 10 11 35 25 54 31 20 6 52 23 70 38 39 32 40 60 1 32z"/>
<path d="M10831 6371 c-8 -5 -43 -15 -77 -22 -45 -9 -64 -17 -67 -30 -3 -13
-18 -21 -46 -25 -26 -4 -46 -14 -52 -25 -5 -11 -17 -19 -26 -19 -9 0 -26 -11
-38 -24 -13 -14 -39 -27 -63 -31 -25 -4 -42 -12 -42 -20 0 -8 -26 -33 -57 -57
-31 -24 -59 -49 -61 -57 -6 -19 12 -11 82 36 84 55 95 61 156 83 31 11 86 39
122 62 126 81 156 98 165 98 6 0 18 9 28 20 14 15 15 20 4 20 -8 0 -21 -4 -28
-9z"/>
<path d="M10469 6331 l-24 -20 23 -1 c12 0 25 7 29 15 9 25 -2 27 -28 6z"/>
<path d="M10286 6313 c-3 -3 -6 -30 -6 -60 0 -62 10 -66 60 -23 19 16 43 29
53 30 20 0 47 23 47 39 0 5 -12 4 -27 -5 -38 -19 -66 -18 -95 6 -14 10 -28 16
-32 13z"/>
<path d="M12793 6266 c-39 -12 -80 -29 -90 -38 -10 -8 -28 -19 -40 -22 -11 -4
-28 -17 -36 -30 -10 -14 -33 -28 -60 -35 -42 -10 -107 -53 -107 -70 0 -4 69
27 154 69 84 41 171 83 192 93 48 21 95 57 74 56 -8 -1 -47 -11 -87 -23z"/>
<path d="M10805 6241 c-27 -10 -74 -30 -102 -45 -29 -14 -77 -35 -107 -47 -31
-11 -66 -33 -80 -50 -14 -16 -34 -29 -44 -29 -11 0 -38 -15 -61 -32 -22 -18
-62 -49 -88 -68 -69 -51 -133 -115 -133 -133 0 -25 44 -31 131 -19 56 8 95 8
135 1 31 -6 68 -7 83 -3 14 5 49 9 76 9 91 2 236 18 241 26 7 12 -35 31 -53
25 -20 -8 -43 11 -43 34 0 11 10 20 25 24 14 4 25 11 25 17 0 6 5 7 11 4 18
-11 56 4 62 24 6 23 -10 41 -37 41 -29 0 -90 -23 -99 -38 -5 -7 -13 -10 -18
-7 -5 4 -40 -16 -77 -44 -56 -42 -74 -51 -109 -51 -25 0 -43 5 -43 11 0 24 42
69 65 69 13 0 27 5 31 11 4 6 39 26 79 44 79 36 100 55 63 55 -49 0 -106 -24
-184 -76 -45 -30 -88 -54 -96 -54 -8 0 -23 -9 -33 -20 -21 -23 -80 -44 -100
-36 -8 3 -15 16 -15 30 0 20 10 29 58 52 31 14 65 35 75 45 10 11 29 19 42 19
14 0 25 4 25 9 0 5 9 13 21 16 12 4 30 16 40 26 10 10 27 19 37 19 9 0 40 12
67 25 28 14 55 25 61 25 7 0 14 7 18 15 3 8 17 15 31 15 25 0 85 50 85 70 0
13 -7 12 -65 -9z"/>
<path d="M10796 6120 c-16 -5 -16 -7 -2 -19 12 -10 19 -10 36 2 19 13 19 15 3
19 -10 3 -27 2 -37 -2z"/>
<path d="M12395 6050 c3 -5 13 -10 21 -10 8 0 14 5 14 10 0 6 -9 10 -21 10
-11 0 -17 -4 -14 -10z"/>
<path d="M12515 6004 c-33 -14 -77 -33 -97 -41 -46 -19 -40 -33 13 -33 41 0
102 34 143 79 25 27 14 26 -59 -5z"/>
<path d="M10880 5939 c0 -12 8 -23 20 -26 28 -8 25 -31 -6 -39 -38 -10 -15
-24 48 -31 79 -8 84 8 20 69 -54 52 -82 61 -82 27z"/>
<path d="M12130 5913 c-36 -20 -81 -42 -100 -49 -42 -15 -46 -38 -6 -42 18 -2
36 4 50 17 12 12 43 28 68 37 35 11 48 22 53 41 3 14 4 27 3 29 -2 2 -33 -13
-68 -33z"/>
</g>
</svg>
